<svg class="feather feather-sun" fill="none" stroke="currentColor" stroke-linecap="round" stroke-linejoin="round" stroke-width="2" version="1.1" viewBox="0 0 24 24" width="24" height="24" xmlns="http://www.w3.org/2000/svg"><g transform="rotate(195.96 22.828 4.748)"><path d="m18.22 9.4968a5 5 0 0 1-3.7599 4.9064 5 5 0 0 1-5.6547-2.497 5 5 0 0 1 1.0932-6.084" stroke="#fe951b"/></g><g transform="matrix(.58175 0 0 .58175 10.492 1.2745)" fill="none" stroke="currentColor" stroke-linecap="round" stroke-linejoin="round" stroke-width="2"><path d="m21.699 12.266a9 9 0 1 1-9.79-9.79 7 7 0 0 0 9.79 9.79z" stroke="#9dbfc9"/></g><g transform="translate(.20024 2.9312)" fill="#fff" stroke="#848482" stroke-linecap="round" stroke-linejoin="round" stroke-width="2"><path d="m18 10h-1.26a8 8 0 1 0-7.74 10h9a5 5 0 0 0 0-10z" fill="#fff" stroke="#848482"/></g></svg>
